HIERARCHY
ROOT Hips
{
	OFFSET 0.000000 0.000000 0.000000 
	CHANNELS 6 Xposition Yposition Zposition Zrotation Yrotation Xrotation
	JOINT LeftUpLeg
	{
		OFFSET 1.363060 -1.794630 0.839290 
		CHANNELS 3 Zrotation Yrotation Xrotation
		JOINT LeftLeg
		{
			OFFSET 2.448110 -6.726130 0.000000 
			CHANNELS 3 Zrotation Yrotation Xrotation
			JOINT LeftFoot
			{
				OFFSET 2.562200 -7.039590 0.000000 
				CHANNELS 3 Zrotation Yrotation Xrotation
				JOINT LeftToeBase
				{
					OFFSET 0.157640 -0.433110 2.322550 
					CHANNELS 3 Zrotation Yrotation Xrotation
					End Site
					{
						OFFSET 0.000000 0.000000 0.000000 
					}
				}
			}
		}
	}
	JOINT RightUpLeg
	{
		OFFSET -1.305520 -1.794630 0.839290 
		CHANNELS 3 Zrotation Yrotation Xrotation
		JOINT RightLeg
		{
			OFFSET -2.542530 -6.985550 0.000000 
			CHANNELS 3 Zrotation Yrotation Xrotation
			JOINT RightFoot
			{
				OFFSET -2.568260 -7.056230 0.000000 
				CHANNELS 3 Zrotation Yrotation Xrotation
				JOINT RightToeBase
				{
					OFFSET -0.164730 -0.452590 2.363150 
					CHANNELS 3 Zrotation Yrotation Xrotation
					End Site
					{
						OFFSET 0.000000 0.000000 0.000000 
					}
				}
			}
		}
	}
	JOINT Spine
	{
		OFFSET 0.028270 2.035590 -0.193380 
		CHANNELS 3 Zrotation Yrotation Xrotation
		JOINT Spine1
		{
			OFFSET 0.056720 2.048850 -0.042750 
			CHANNELS 3 Zrotation Yrotation Xrotation
			JOINT Neck1
			{
				OFFSET -0.054170 1.746240 0.172020 
				CHANNELS 3 Zrotation Yrotation Xrotation
				JOINT Head
				{
					OFFSET 0.104070 1.761360 -0.123970 
					CHANNELS 3 Zrotation Yrotation Xrotation
					End Site
					{
						OFFSET 0.000000 0.000000 0.000000 
					}
				}
			}
			JOINT LeftArm
			{
				OFFSET 3.362410 1.200890 -0.311210 
				CHANNELS 3 Zrotation Yrotation Xrotation
				JOINT LeftForeArm
				{
					OFFSET 4.983000 -0.000000 -0.000000 
					CHANNELS 3 Zrotation Yrotation Xrotation
					JOINT LeftHand
					{
						OFFSET 3.483560 -0.000000 -0.000000 
						CHANNELS 3 Zrotation Yrotation Xrotation
						JOINT LeftHandIndex1
						{
							OFFSET 0.715260 -0.000000 -0.000000 
							CHANNELS 3 Zrotation Yrotation Xrotation
							End Site
							{
								OFFSET 0.000000 0.000000 0.000000 
							}
						}
					}
				}
			}
			JOINT RightArm
			{
				OFFSET -3.136600 1.374050 -0.404650 
				CHANNELS 3 Zrotation Yrotation Xrotation
				JOINT RightForeArm
				{
					OFFSET -5.241900 -0.000000 -0.000000 
					CHANNELS 3 Zrotation Yrotation Xrotation
					JOINT RightHand
					{
						OFFSET -3.444170 -0.000000 -0.000000 
						CHANNELS 3 Zrotation Yrotation Xrotation
						JOINT RightHandIndex1
						{
							OFFSET -0.622530 -0.000000 -0.000000 
							CHANNELS 3 Zrotation Yrotation Xrotation
							End Site
							{
								OFFSET 0.000000 0.000000 0.000000 
							}
						}
					}
				}
			}
		}
	}
}
MOTION
Frames: 16
Frame Time: 0.041667
2.573600 27.553300 -1.032300 -2.859700 88.382700 9.666400 -18.692200 -6.573400 -25.495400 2.407200 9.667200 27.905700 0.479300 -11.604300 -13.796500 0.076100 -1.779300 -4.896000 17.605300 -0.457200 -2.364400 -0.656800 -5.183700 14.433300 -0.377000 -8.156700 -17.331200 -0.043600 1.347800 -3.706300 -0.282500 3.821300 1.993600 1.239300 1.864100 2.538100 -13.642800 11.680700 -6.394700 -6.411500 5.852000 -0.136000 -75.238400 -26.197100 46.091800 82.322200 -59.776100 -53.355800 0.000000 0.000000 -1.854000 -7.125000 0.000000 0.000000 80.113400 27.394400 49.502800 -62.664400 56.979100 -36.566700 0.000000 0.000000 6.024100 7.125000 0.000000 0.000000 
2.571800 27.551900 -1.017400 0.024100 88.429300 12.301800 -18.741300 -6.451500 -25.242000 2.407600 9.667900 27.907700 0.470400 -11.717300 -13.749600 0.064300 -1.635700 -4.499900 17.667500 -0.305800 -1.999300 -0.657500 -5.186500 14.441200 -0.383000 -8.405900 -17.647800 -0.013400 0.746300 -2.050900 -0.175800 3.738900 2.149200 1.439000 1.812200 2.932600 -13.789700 11.870700 -5.955500 -6.432100 5.943400 0.057800 -75.369500 -25.063700 46.473700 79.549800 -59.583300 -50.962600 0.000000 0.000000 -1.289500 -7.125000 0.000000 0.000000 80.334500 26.410800 49.408600 -60.116800 56.341000 -34.438300 0.000000 0.000000 6.155100 7.125000 0.000000 0.000000 
2.568200 27.547800 -1.005500 3.959200 88.332600 16.036300 -18.843500 -6.335500 -25.050500 2.410500 9.673400 27.925400 0.469300 -11.766200 -13.756800 0.047700 -1.408900 -3.874700 17.634400 -0.088200 -1.693400 -0.655800 -5.179800 14.422200 -0.398400 -8.573600 -17.994500 -0.000200 0.086600 -0.238000 -0.472400 3.721200 1.806300 0.939300 1.821500 2.476300 -14.209800 12.062800 -6.661400 -6.626600 6.078900 -0.257300 -74.929400 -23.541500 47.098300 76.408900 -59.290400 -48.257800 0.000000 0.000000 -0.616400 -7.125000 0.000000 0.000000 81.187800 24.764700 49.374200 -57.637300 55.646700 -32.382700 0.000000 0.000000 6.451400 7.125000 0.000000 0.000000 
2.563000 27.542100 -0.993700 1.426200 88.098100 13.295200 -18.757200 -6.170700 -24.855800 2.414300 9.680500 27.948000 0.490900 -11.671300 -13.937400 0.056400 -1.532800 -4.216200 17.747600 0.067400 -1.422600 -0.652500 -5.166800 14.385000 -0.401500 -8.653900 -18.110400 0.000000 -0.025100 0.068900 -0.506300 3.855100 1.457700 0.772000 1.899700 1.950000 -13.585000 11.721500 -5.547400 -6.435800 5.871700 0.056500 -74.972000 -22.303200 48.209700 72.561700 -58.819200 -44.957900 0.000000 0.000000 0.714900 -7.125000 0.000000 0.000000 81.585500 23.229400 49.283000 -55.139600 54.869200 -30.330100 0.000000 0.000000 6.855600 7.125000 0.000000 0.000000 
2.555100 27.537200 -0.981000 -3.432000 87.915200 8.198300 -18.531800 -6.053200 -24.641000 2.422500 9.695600 27.996500 0.510500 -11.575300 -14.096500 0.071200 -1.721100 -4.735400 17.989600 0.134800 -1.220100 -0.658500 -5.190200 14.451800 -0.390400 -8.809000 -18.135500 -0.001300 0.230500 -0.633400 -0.373300 4.000000 1.673800 0.844500 1.967200 2.399900 -14.409600 11.997400 -6.448200 -6.742900 6.047700 -0.201400 -75.211100 -21.842400 49.394600 68.671700 -58.209400 -41.640200 0.000000 0.000000 2.644800 -7.125000 0.000000 0.000000 81.764900 22.515100 49.037600 -52.673700 54.018500 -28.323800 0.000000 0.000000 7.247200 7.125000 0.000000 0.000000 
2.546200 27.532400 -0.968200 -0.964200 87.732100 10.420900 -18.579600 -6.064800 -24.386300 2.427400 9.704700 28.025500 0.526200 -11.373200 -14.181200 0.078200 -1.804100 -4.964700 17.918100 0.088900 -1.067800 -0.668300 -5.227800 14.559500 -0.395300 -8.851400 -18.234200 -0.001500 0.249500 -0.685600 -0.333700 4.097200 1.848100 0.931300 2.009500 2.766500 -13.973900 11.889900 -5.482100 -6.510600 5.969100 0.112500 -75.451400 -21.195500 49.939300 65.351200 -57.575000 -38.827300 0.000000 0.000000 3.661200 -7.125000 0.000000 0.000000 82.029700 21.553100 48.694100 -50.420200 53.163600 -26.510100 0.000000 0.000000 7.537500 7.125000 0.000000 0.000000 
2.530900 27.519900 -0.956600 5.831200 87.533600 17.125300 -18.838700 -6.218000 -24.292800 2.433500 9.716000 28.061900 0.545100 -11.119600 -14.283800 0.092200 -1.958000 -5.389700 17.595400 0.003000 -1.115800 -0.678800 -5.267800 14.674100 -0.405000 -8.811600 -18.306800 -0.005000 0.455800 -1.252500 -0.670600 4.180900 1.365500 0.479300 2.066900 2.045000 -13.637800 11.970700 -4.718400 -6.388800 5.994500 0.348200 -75.235300 -19.781900 49.793400 62.420300 -56.921100 -36.362100 0.000000 0.000000 2.994600 -7.125000 0.000000 0.000000 82.859600 19.727800 48.408400 -48.306000 52.289000 -24.827600 0.000000 0.000000 7.713400 7.125000 0.000000 0.000000 
2.510000 27.514000 -0.945800 12.415300 87.535100 23.700700 -19.063100 -6.429400 -24.297400 2.438000 9.724300 28.088400 0.544300 -11.090100 -14.265700 0.087000 -1.902300 -5.235800 17.342600 -0.113200 -1.240200 -0.685700 -5.294300 14.749900 -0.404000 -8.912800 -18.395800 -0.010300 0.653800 -1.796700 -0.707000 4.107700 1.412400 0.546700 2.025600 2.266100 -13.597700 11.984500 -4.634400 -6.336100 6.003300 0.364200 -75.442000 -19.162400 49.947900 61.460800 -56.686800 -35.559200 0.000000 0.000000 1.825600 -7.125000 0.000000 0.000000 83.106400 18.964300 48.336500 -46.326500 51.402000 -23.270900 0.000000 0.000000 7.078800 7.125000 0.000000 0.000000 
2.498400 27.508800 -0.935300 11.720200 87.354100 22.789100 -19.028300 -6.428600 -24.076000 2.443600 9.734600 28.121600 0.562700 -10.905200 -14.388900 0.078100 -1.803100 -4.961800 17.317500 -0.137900 -1.097000 -0.691400 -5.315800 14.811500 -0.445300 -8.698000 -18.651500 -0.008100 0.579400 -1.592100 -0.651100 4.113800 1.559000 0.590400 2.024900 2.581100 -13.411800 11.903100 -4.556000 -6.268300 5.960900 0.354400 -75.636000 -18.455500 50.163400 58.688200 -55.950100 -33.251900 0.000000 0.000000 2.712600 -7.125000 0.000000 0.000000 83.296800 18.297900 48.240600 -43.981700 50.259800 -21.452800 0.000000 0.000000 7.259300 7.125000 0.000000 0.000000 
2.484300 27.503300 -0.919100 8.498000 87.057100 19.203400 -18.901900 -6.113500 -23.786600 2.445400 9.737900 28.132200 0.581700 -10.820500 -14.549800 0.088700 -1.921200 -5.288000 17.398700 -0.075000 -0.738200 -0.690100 -5.310700 14.796900 -0.494900 -8.366500 -18.885000 -0.010500 0.661200 -1.816900 -0.655300 4.235500 1.613600 0.485600 2.088800 2.607200 -13.659200 11.934300 -4.724800 -6.369000 5.987400 0.288300 -75.644500 -17.619600 50.435600 56.176100 -55.201800 -31.179600 0.000000 0.000000 3.458200 -7.125000 0.000000 0.000000 83.644300 17.467900 47.921500 -41.910100 49.161700 -19.872500 0.000000 0.000000 7.335300 7.125000 0.000000 0.000000 
2.472300 27.497600 -0.902100 10.041300 86.896500 20.559800 -18.971900 -5.918600 -23.673400 2.445800 9.738600 28.134400 0.586400 -10.902000 -14.619900 0.094600 -1.984000 -5.461300 17.292900 -0.092100 -0.528900 -0.685700 -5.294200 14.749600 -0.535900 -8.023200 -19.017200 -0.015000 0.790400 -2.172400 -0.867500 4.296100 1.351700 0.162100 2.128500 2.214300 -13.384100 11.848300 -3.804500 -6.319300 5.923900 0.593300 -75.431500 -16.404300 50.837000 53.904800 -54.453900 -29.322900 0.000000 0.000000 4.090600 -7.125000 0.000000 0.000000 84.247000 16.218500 47.542800 -40.062000 48.106600 -18.485400 0.000000 0.000000 7.027100 7.125000 0.000000 0.000000 
2.456700 27.495600 -0.881900 8.285400 86.374500 18.844700 -18.898000 -5.710700 -23.788000 2.442800 9.733100 28.116600 0.608800 -10.632800 -14.758600 0.103800 -2.077200 -5.718900 17.235200 0.219400 -0.560500 -0.684100 -5.288000 14.731800 -0.545700 -7.701200 -18.839500 -0.036400 1.231100 -3.385000 -0.660400 4.473200 1.535500 0.584100 2.203100 2.737100 -13.672500 12.019400 -3.912000 -6.352300 6.022000 0.569700 -75.967200 -15.905700 50.947600 51.509200 -53.586400 -27.384100 0.000000 0.000000 4.651400 -7.125000 0.000000 0.000000 84.130100 15.685300 47.240700 -38.346900 47.059500 -17.219100 0.000000 0.000000 6.606900 7.125000 0.000000 0.000000 
2.443600 27.489100 -0.859800 11.101100 86.307200 21.255500 -19.060900 -5.436300 -23.435500 2.438700 9.725600 28.092700 0.605200 -10.783800 -14.767700 0.121300 -2.245200 -6.183800 17.113600 0.289600 -0.069000 -0.683100 -5.284100 14.720800 -0.525900 -7.961200 -18.853900 -0.064200 1.634200 -4.495900 -0.614000 4.404500 1.534000 0.754100 2.165600 2.597200 -13.848000 12.039400 -3.955400 -6.433100 6.041100 0.535100 -76.293300 -14.968000 51.100800 49.190400 -52.663700 -25.529100 0.000000 0.000000 5.116000 -7.125000 0.000000 0.000000 84.345800 14.642700 46.916400 -36.778900 46.041400 -16.080700 0.000000 0.000000 6.471000 7.125000 0.000000 0.000000 
2.422700 27.484600 -0.846800 14.274000 86.245300 24.177600 -19.251700 -5.412600 -23.206100 2.435100 9.718900 28.071300 0.613700 -10.762500 -14.843700 0.139600 -2.407700 -6.633800 16.908500 0.287100 0.172400 -0.680300 -5.273900 14.691300 -0.540600 -8.002900 -19.050200 -0.068200 1.684600 -4.634700 -0.632600 4.284300 1.567600 0.798500 2.103700 2.589500 -14.077000 12.162800 -4.220500 -6.488700 6.121200 0.420900 -76.561100 -14.260800 51.050300 46.813700 -51.626700 -23.652200 0.000000 0.000000 5.507500 -7.125000 0.000000 0.000000 84.555300 13.898300 46.719700 -35.147700 44.917300 -14.917600 0.000000 0.000000 6.511400 7.125000 0.000000 0.000000 
2.398600 27.482200 -0.835200 14.506500 86.321600 24.377800 -19.165200 -5.565300 -23.189300 2.430800 9.711000 28.045700 0.621400 -10.679100 -14.894300 0.148900 -2.486900 -6.853400 16.939800 0.287500 0.170800 -0.674200 -5.250600 14.624600 -0.574100 -7.848000 -19.270700 -0.057600 1.549300 -4.261600 -0.728600 4.221200 1.452400 0.541700 2.079900 2.488600 -13.971100 12.316600 -3.661600 -6.430500 6.183200 0.657900 -76.665200 -13.562200 51.195000 44.545200 -50.543700 -21.887100 0.000000 0.000000 5.618600 -7.125000 0.000000 0.000000 84.903100 13.047300 46.321800 -33.622900 43.803400 -13.851400 0.000000 0.000000 6.787000 7.125000 0.000000 0.000000 
2.378000 27.479100 -0.821000 14.081000 86.352800 23.839900 -19.031700 -5.756200 -23.048000 2.425100 9.700500 28.012300 0.630900 -10.528200 -14.944000 0.151500 -2.508300 -6.912700 16.987300 0.224200 0.235800 -0.669200 -5.231300 14.569400 -0.603600 -7.588500 -19.359200 -0.055900 1.525400 -4.195900 -0.819100 4.262200 1.377800 0.305300 2.106500 2.446800 -13.364300 12.011200 -2.805700 -6.256200 6.009300 0.883100 -76.719500 -12.821000 51.476300 42.625700 -49.550800 -20.415500 0.000000 0.000000 5.418500 -7.125000 0.000000 0.000000 85.179400 12.141200 45.834700 -32.225300 42.726000 -12.893400 0.000000 0.000000 7.243000 7.125000 0.000000 0.000000 
